<svg height="480pt" viewBox="0 0 480 480" width="480pt" xmlns="http://www.w3.org/2000/svg"><path d="m440 8h-336c-17.671875 0-32 14.328125-32 32v32h304c17.671875 0 32 14.328125 32 32v304h32c17.671875 0 32-14.328125 32-32v-336c0-17.671875-14.328125-32-32-32zm0 0" fill="#bddbff"/><g fill="#3d9ae2"><path d="m440 0h-336c-22.082031.0273438-39.972656 17.917969-40 40v24h-24c-22.082031.027344-39.9726562 17.917969-40 40v336c.0273438 22.082031 17.917969 39.972656 40 40h336c22.082031-.027344 39.972656-17.917969 40-40v-24h24c22.082031-.027344 39.972656-17.917969 40-40v-336c-.027344-22.082031-17.917969-39.9726562-40-40zm-40 440c0 13.253906-10.746094 24-24 24h-336c-13.253906 0-24-10.746094-24-24v-336c0-13.253906 10.746094-24 24-24h336c13.253906 0 24 10.746094 24 24zm64-64c0 13.253906-10.746094 24-24 24h-24v-296c-.027344-22.082031-17.917969-39.972656-40-40h-296v-24c0-13.253906 10.746094-24 24-24h336c13.253906 0 24 10.746094 24 24zm0 0"/><path d="m296 264h-80v-80c0-4.417969-3.582031-8-8-8s-8 3.582031-8 8v80h-80c-4.417969 0-8 3.582031-8 8s3.582031 8 8 8h80v80c0 4.417969 3.582031 8 8 8s8-3.582031 8-8v-80h80c4.417969 0 8-3.582031 8-8s-3.582031-8-8-8zm0 0"/></g></svg>