<svg height="496pt" viewBox="0 -100 496.0009 496" width="496pt" xmlns="http://www.w3.org/2000/svg"><path d="m24 8h448c8.835938 0 16 7.164062 16 16v240c0 8.835938-7.164062 16-16 16h-448c-8.835938 0-16-7.164062-16-16v-240c0-8.835938 7.164062-16 16-16zm0 0" fill="#e0e0e2"/><path d="m472 8h-448c-8.835938 0-16 7.164062-16 16v16l240 144 240-144v-16c0-8.835938-7.164062-16-16-16zm0 0" fill="#acabb1"/><path d="m488 248c0 26.511719-21.492188 48-48 48s-48-21.488281-48-48c0-26.507812 21.492188-48 48-48s48 21.492188 48 48zm0 0" fill="#ffda44"/><g fill="#231f20"><path d="m472 0h-448c-13.253906 0-24 10.746094-24 24v240c0 13.253906 10.746094 24 24 24h344c4.417969 0 8-3.582031 8-8s-3.582031-8-8-8h-344c-4.417969 0-8-3.582031-8-8v-209.871094l227.878906 136.726563c2.535156 1.523437 5.707032 1.523437 8.242188 0l227.878906-136.726563v113.871094c0 4.417969 3.582031 8 8 8s8-3.582031 8-8v-144c0-13.253906-10.746094-24-24-24zm-224 174.671875-232-139.199219v-11.472656c0-4.417969 3.582031-8 8-8h448c4.417969 0 8 3.582031 8 8v11.472656zm0 0"/><path d="m424 296h.625c2.332031-.183594 4.46875-1.378906 5.847656-3.273438l64-88c2.597656-3.574218 1.804688-8.574218-1.769531-11.175781-3.574219-2.597656-8.578125-1.804687-11.175781 1.769531l-58.496094 80.398438-25.375-25.375c-3.140625-3.03125-8.128906-2.988281-11.214844.097656-3.085937 3.085938-3.128906 8.074219-.097656 11.214844l32 32c1.5 1.5 3.535156 2.34375 5.65625 2.34375zm0 0"/><path d="m48 200c-4.417969 0-8 3.582031-8 8v32c0 4.417969 3.582031 8 8 8h16c4.417969 0 8-3.582031 8-8s-3.582031-8-8-8h-8v-24c0-4.417969-3.582031-8-8-8zm0 0"/><path d="m96 232c-4.417969 0-8 3.582031-8 8s3.582031 8 8 8h16c4.417969 0 8-3.582031 8-8s-3.582031-8-8-8zm0 0"/></g></svg>